<svg width="512" height="512" viewBox="0 0 512 512" fill="none" xmlns="http://www.w3.org/2000/svg">
<path d="M0 256C0 397.385 114.615 512 256 512L289.642 256L256 0C114.615 0 0 114.615 0 256Z" fill="#FFDA2D"/>
<path d="M256 0V512C397.385 512 512 397.385 512 256C512 114.615 397.385 0 256 0Z" fill="#FFDA2D"/>
<path d="M282.545 212.045C282.545 171.049 315.897 137.697 356.893 137.697C397.889 137.697 431.241 171.049 431.241 212.045C431.241 253.041 397.889 286.393 356.893 286.393C315.897 286.393 282.545 253.04 282.545 212.045V212.045Z" fill="#7270D5"/>
<path d="M347.276 187.123C347.276 165.418 364.934 147.76 386.639 147.76C407.457 147.76 424.582 164.002 425.945 184.48C426.003 185.353 426.002 186.236 426.002 187.123C426.002 208.828 408.344 226.486 386.639 226.486C364.934 226.486 347.276 208.827 347.276 187.123Z" fill="#E7FFFF"/>
<path d="M425.945 184.48L433.369 154.428L318.018 122.768C313.06 121.582 309.597 117.194 309.597 112.096V97.63H279.597V112.096C279.597 131.131 292.527 147.518 311.04 151.946L425.945 184.48Z" fill="#FFB64C"/>
<path d="M294.95 239.905C294.95 219.606 311.465 203.091 331.764 203.091C352.064 203.091 368.578 219.606 368.578 239.905C368.578 260.204 352.063 276.719 331.764 276.719C311.465 276.72 294.95 260.205 294.95 239.905Z" fill="#7D89E5"/>
<path d="M158.241 286.393C117.245 286.393 83.893 253.04 83.893 212.045C83.893 171.05 117.245 137.697 158.241 137.697C199.237 137.697 232.589 171.049 232.589 212.045C232.589 253.041 199.237 286.393 158.241 286.393V286.393Z" fill="#7270D5"/>
<path d="M128.495 226.486C106.79 226.486 89.132 208.828 89.132 187.123C89.132 186.236 89.131 185.353 89.189 184.48C90.552 164.002 107.677 147.76 128.495 147.76C150.2 147.76 167.858 165.418 167.858 187.123C167.858 208.828 150.2 226.486 128.495 226.486Z" fill="#E7FFFF"/>
<path d="M89.189 184.48L81.765 154.428L197.116 122.768C202.074 121.582 205.537 117.194 205.537 112.096V97.63H235.537V112.096C235.537 131.131 222.607 147.518 204.094 151.946L89.189 184.48Z" fill="#FFB64C"/>
<path d="M183.37 276.72C163.07 276.72 146.556 260.205 146.556 239.906C146.556 219.607 163.071 203.092 183.37 203.092C203.669 203.092 220.184 219.607 220.184 239.906C220.184 260.205 203.669 276.72 183.37 276.72Z" fill="#7D89E5"/>
<path d="M245.053 337.251C211.369 337.251 183.965 364.655 183.965 398.339H213.965C213.965 381.197 227.911 367.251 245.053 367.251H256L273.817 357.794L256 337.251H245.053Z" fill="#FFB64C"/>
<path d="M266.947 337.251H256V367.251H266.947C284.089 367.251 298.035 381.197 298.035 398.339H328.035C328.035 364.655 300.63 337.251 266.947 337.251Z" fill="#FFB64C"/>
</svg>
